<svg xmlns="http://www.w3.org/2000/svg" viewBox="0 0 120 120" width="100%" height="100%">
  <defs>
    <linearGradient id="bn_bg" x1="0%" y1="0%" x2="100%" y2="100%">
      <stop offset="0%" stop-color="#2B1E17"/>
      <stop offset="100%" stop-color="#140D0A"/>
    </linearGradient>
  </defs>
  <circle cx="60" cy="60" r="58" fill="url(#bn_bg)" stroke="#D95327" stroke-width="3"/>
  <path d="M38,62 C38,42 50,30 60,30 C70,30 82,42 82,62 C82,78 72,86 60,86 C48,86 38,78 38,62 Z" fill="#173B32" stroke="#C59B47" stroke-width="2"/>
  <path d="M44,52 Q60,46 76,52 L74,66 Q60,62 46,66 Z" fill="#D95327" stroke="#FAF4E8" stroke-width="1.5"/>
  <line x1="42" y1="76" x2="78" y2="76" stroke="#C59B47" stroke-width="2"/>
  <circle cx="60" cy="76" r="4" fill="#FAF4E8"/>
  <path d="M40,88 Q60,78 80,88 L85,100 Q60,94 35,100 Z" fill="#7B4D36"/>
  <circle cx="60" cy="60" r="56" fill="none" stroke="#D95327" stroke-width="1" stroke-dasharray="3,3" opacity="0.4"/>
</svg>