<svg xmlns="http://www.w3.org/2000/svg" viewBox="0 0 120 120" width="100%" height="100%">
  <defs>
    <linearGradient id="cft_bg" x1="0%" y1="0%" x2="100%" y2="100%">
      <stop offset="0%" stop-color="#23150D"/>
      <stop offset="100%" stop-color="#0E0704"/>
    </linearGradient>
  </defs>
  <circle cx="60" cy="60" r="58" fill="url(#cft_bg)" stroke="#F97316" stroke-width="3"/>
  <line x1="42" y1="84" x2="78" y2="76" stroke="#78350F" stroke-width="4" stroke-linecap="round"/>
  <line x1="42" y1="76" x2="78" y2="84" stroke="#78350F" stroke-width="4" stroke-linecap="round"/>
  <path d="M60,35 Q68,52 64,68 Q60,74 56,68 Q52,52 60,35 Z" fill="#EF4444"/>
  <path d="M60,45 Q65,56 62,68 Q60,72 58,68 Q55,56 60,45 Z" fill="#F59E0B"/>
  <path d="M60,55 Q63,62 61,68 Q60,70 59,68 Q57,62 60,55 Z" fill="#FEF08A"/>
  <circle cx="52" cy="32" r="1.5" fill="#F59E0B"/>
  <circle cx="68" cy="28" r="2" fill="#F59E0B"/>
  <circle cx="60" cy="60" r="56" fill="none" stroke="#F97316" stroke-width="1" stroke-dasharray="3,3" opacity="0.4"/>
</svg>