<svg xmlns="http://www.w3.org/2000/svg" viewBox="0 0 120 120" width="100%" height="100%">
  <defs>
    <linearGradient id="hw_bg" x1="0%" y1="0%" x2="100%" y2="100%">
      <stop offset="0%" stop-color="#42231B"/>
      <stop offset="100%" stop-color="#1F0F0B"/>
    </linearGradient>
  </defs>
  <circle cx="60" cy="60" r="58" fill="url(#hw_bg)" stroke="#E76F51" stroke-width="3"/>
  <path d="M32,92 L32,54 Q32,32 60,22 Q88,32 88,54 L88,92 Z" fill="none" stroke="#C59B47" stroke-width="2.5"/>
  <path d="M40,92 L40,56 Q40,38 60,30 Q80,38 80,56 L80,92 Z" fill="#5A2D22" opacity="0.6"/>
  <circle cx="60" cy="46" r="8" fill="#F4A261"/>
  <circle cx="60" cy="62" r="11" fill="#FAF4E8"/>
  <path d="M48,58 Q60,40 73,54 Q67,46 58,47 Q50,50 48,58 Z" fill="#D95327"/>
  <path d="M68,52 Q76,46 74,40 Q64,42 60,48 Z" fill="#E5C578"/>
  <path d="M44,92 Q60,78 76,92 Z" fill="#C59B47"/>
  <circle cx="60" cy="60" r="56" fill="none" stroke="#C59B47" stroke-width="1" stroke-dasharray="3,3" opacity="0.4"/>
</svg>