<svg xmlns="http://www.w3.org/2000/svg" viewBox="0 0 120 120" width="100%" height="100%">
  <defs>
    <linearGradient id="nt_bg" x1="0%" y1="0%" x2="100%" y2="100%">
      <stop offset="0%" stop-color="#111D33"/>
      <stop offset="100%" stop-color="#060B14"/>
    </linearGradient>
  </defs>
  <circle cx="60" cy="60" r="58" fill="url(#nt_bg)" stroke="#9D4EDD" stroke-width="3"/>
  <circle cx="30" cy="35" r="1.5" fill="#FAF4E8"/>
  <circle cx="45" cy="26" r="2" fill="#E5C578"/>
  <circle cx="70" cy="28" r="1.5" fill="#FAF4E8"/>
  <circle cx="88" cy="38" r="2" fill="#FAF4E8"/>
  <line x1="30" y1="35" x2="45" y2="26" stroke="#FAF4E8" stroke-width="0.8" stroke-dasharray="2,2" opacity="0.5"/>
  <line x1="45" y1="26" x2="70" y2="28" stroke="#FAF4E8" stroke-width="0.8" stroke-dasharray="2,2" opacity="0.5"/>
  <line x1="70" y1="28" x2="88" y2="38" stroke="#FAF4E8" stroke-width="0.8" stroke-dasharray="2,2" opacity="0.5"/>
  <path d="M54,32 A16,16 0 0 0 76,54 A18,18 0 1 1 54,32 Z" fill="#F4A261" opacity="0.95"/>
  <polygon points="15,96 45,65 75,96" fill="#1B263B"/>
  <polygon points="50,96 78,58 105,96" fill="#0D1B2A"/>
  <path d="M35,96 Q60,88 85,96" fill="none" stroke="#FFD166" stroke-width="2"/>
  <circle cx="60" cy="60" r="56" fill="none" stroke="#9D4EDD" stroke-width="1" stroke-dasharray="3,3" opacity="0.4"/>
</svg>